<?xml version="1.0" standalone="no"?>
<!DOCTYPE svg PUBLIC "-//W3C//DTD SVG 20010904//EN"
 "http://www.w3.org/TR/2001/REC-SVG-20010904/DTD/svg10.dtd">
<svg version="1.0" xmlns="http://www.w3.org/2000/svg"
 width="1000.000000pt" height="1000.000000pt" viewBox="0 0 1000.000000 1000.000000"
 preserveAspectRatio="xMidYMid meet">
<metadata>
Created by potrace 1.11, written by Peter Selinger 2001-2013
</metadata>
<g transform="translate(0.000000,1000.000000) scale(0.100000,-0.100000)"
fill="#000000" stroke="none">
<path d="M0 5000 l0 -5000 5000 0 5000 0 0 5000 0 5000 -5000 0 -5000 0 0
-5000z m5788 8 l2 -1958 -135 0 -135 0 0 1960 0 1961 133 -3 132 -3 3 -1957z
m2887 1558 c40 -10 50 -17 48 -32 -1 -10 -12 -80 -23 -154 -11 -74 -25 -243
-32 -375 -6 -132 -14 -243 -17 -246 -3 -4 -27 -10 -53 -13 l-47 -7 -6 38 c-28
182 -49 252 -109 368 -53 103 -138 190 -231 236 -60 29 -80 34 -165 37 -119 5
-184 -12 -254 -65 -155 -119 -175 -403 -39 -548 49 -53 91 -79 401 -249 167
-91 346 -193 397 -227 220 -142 314 -313 315 -572 0 -179 -48 -336 -141 -460
-163 -216 -472 -337 -859 -337 -191 1 -450 44 -641 109 l-84 28 0 44 c1 24 6
130 13 234 7 105 12 259 12 342 0 170 -3 165 76 177 l42 6 7 -73 c22 -247 97
-431 230 -562 235 -231 638 -214 764 33 73 142 39 351 -73 449 -24 21 -176
113 -337 205 -363 207 -436 254 -509 327 -147 146 -208 319 -197 555 10 221
67 357 207 498 73 72 103 94 181 132 127 61 233 86 400 93 215 9 409 -32 536
-113 l52 -33 21 47 c12 26 29 64 37 85 8 20 18 37 22 37 3 0 29 -6 56 -14z
m-6510 -253 c40 -103 142 -359 228 -568 85 -209 194 -478 242 -598 48 -120 91
-215 95 -210 16 17 308 831 470 1306 l87 257 478 3 c332 2 478 0 480 -7 2 -6
6 -32 9 -58 6 -55 22 -48 -164 -67 -82 -9 -109 -16 -125 -32 -20 -19 -20 -30
-18 -762 3 -857 15 -1299 37 -1351 19 -46 41 -56 154 -67 152 -16 142 -10 142
-77 l0 -57 -625 0 -625 -1 0 58 c0 65 -5 62 109 73 85 8 138 31 156 66 16 31
26 253 45 1059 16 712 20 1006 13 990 -20 -45 -217 -635 -369 -1105 -97 -297
-216 -665 -266 -817 l-90 -278 -37 -9 c-74 -19 -242 -53 -245 -50 -1 2 -47
141 -103 309 -55 168 -226 658 -380 1090 -155 432 -286 802 -293 823 -6 20
-14 37 -17 37 -15 0 21 -1863 37 -1960 19 -108 59 -133 242 -153 70 -7 130
-15 132 -18 3 -3 2 -29 -1 -60 l-5 -55 -464 1 -464 0 0 57 c0 65 -4 62 100 72
165 17 209 64 229 243 20 169 51 1179 51 1641 0 276 -5 302 -62 321 -18 5 -73
13 -123 16 -142 10 -135 6 -135 73 l0 58 501 -3 502 -2 72 -188z"/>
</g>
</svg>
